# xmcd CD database file
#
# Track frame offsets:
#	150
#	12975
#	33359
#	52889
#	73174
#	91716
#	107745
#	126452
#	137488
#
# Disc length: 1922 seconds
#
# Revision: 0
# Processed by: cddbd v1.5.2PL0 Copyright (c) Steve Scherf et al.
# Submitted via: CDex 1.70beta2
#
DISCID=73078009
DTITLE=Armando Rene - Hoy en tus Ojos
DYEAR=1900
DGENRE=New Age
TTITLE0=Intro
TTITLE1=Mis pocas reglas
TTITLE2=Quizas te vayas,pero no
TTITLE3=Hoy en tus ojos
TTITLE4=Una tormenta mas
TTITLE5=Me marcaste el corazoon
TTITLE6=Sin solo tu
TTITLE7=Las cosas que yo hago
TTITLE8=Instrumental
EXTD=
EXTT0=
EXTT1=
EXTT2=
EXTT3=
EXTT4=
EXTT5=
EXTT6=
EXTT7=
EXTT8=
PLAYORDER=
